<svg width="27" height="27" viewBox="0 0 27 27" fill="none" xmlns="http://www.w3.org/2000/svg">
<g clip-path="url(#clip0_100_411)">
<path fill-rule="evenodd" clip-rule="evenodd" d="M0 13.5C0 20.942 6.05516 27 13.5 27C20.942 27 27 20.942 27 13.5C27 6.05798 20.942 0 13.5 0C6.05799 0 0 6.05798 0 13.5ZM5.01349 4.1929C7.25443 2.14778 10.2341 0.89905 13.5 0.89905C16.765 0.89905 19.7438 2.14702 21.9845 4.19103L20.9825 5.19303C19.0012 3.40726 16.3776 2.32031 13.5 2.32031C10.6214 2.32031 7.99701 3.40801 6.01547 5.19488L5.01349 4.1929ZM4.19133 5.01521C2.14714 7.25594 0.89905 10.2349 0.89905 13.5C0.89905 16.7648 2.14693 19.7435 4.1908 21.9842L5.19278 20.9822C3.40716 19.0009 2.32031 16.3775 2.32031 13.5C2.32031 10.6222 3.40738 7.99854 5.19332 6.01719L4.19133 5.01521ZM5.0129 22.8065C7.25391 24.852 10.2338 26.1009 13.5 26.1009C16.7646 26.1009 19.7431 24.8532 21.9837 22.8096L20.9817 21.8077C19.0005 23.593 16.3773 24.6797 13.5 24.6797C10.6211 24.6797 7.99648 23.5918 6.01487 21.8046L5.0129 22.8065ZM26.101 13.5C26.101 16.7665 24.8518 19.7465 22.8061 21.9876L21.8042 20.9856C23.5916 19.0039 24.6797 16.3792 24.6797 13.5C24.6797 10.6212 23.5919 7.99673 21.8048 6.01515L22.8068 5.01317C24.8521 7.25414 26.101 10.2339 26.101 13.5Z" fill="#478BF9"/>
<path d="M13.5 8.01562C14.9901 8.01562 15.176 8.02111 15.7607 8.04853C16.3447 8.07595 16.7424 8.16754 17.0923 8.30355C17.4542 8.44286 17.7592 8.63152 18.0641 8.9359C18.343 9.21006 18.5588 9.5417 18.6964 9.90773C18.8319 10.2571 18.924 10.6553 18.9515 11.2393C18.9772 11.824 18.9844 12.0099 18.9844 13.5C18.9844 14.9901 18.9789 15.176 18.9515 15.7607C18.924 16.3447 18.8319 16.7424 18.6964 17.0923C18.5592 17.4585 18.3433 17.7902 18.0641 18.0641C17.7899 18.3429 17.4582 18.5587 17.0923 18.6964C16.7429 18.8319 16.3447 18.924 15.7607 18.9515C15.176 18.9772 14.9901 18.9844 13.5 18.9844C12.0099 18.9844 11.824 18.9789 11.2393 18.9515C10.6553 18.924 10.2576 18.8319 9.90773 18.6964C9.54156 18.559 9.20986 18.3432 8.9359 18.0641C8.65697 17.79 8.44117 17.4583 8.30355 17.0923C8.16754 16.7429 8.07595 16.3447 8.04853 15.7607C8.02275 15.176 8.01562 14.9901 8.01562 13.5C8.01562 12.0099 8.02111 11.824 8.04853 11.2393C8.07595 10.6547 8.16754 10.2576 8.30355 9.90773C8.44079 9.54148 8.65664 9.20975 8.9359 8.9359C9.20994 8.65688 9.54161 8.44106 9.90773 8.30355C10.2576 8.16754 10.6547 8.07595 11.2393 8.04853C11.824 8.02275 12.0099 8.01562 13.5 8.01562ZM13.5 10.7578C12.7727 10.7578 12.0752 11.0467 11.561 11.561C11.0467 12.0752 10.7578 12.7727 10.7578 13.5C10.7578 14.2273 11.0467 14.9248 11.561 15.439C12.0752 15.9533 12.7727 16.2422 13.5 16.2422C14.2273 16.2422 14.9248 15.9533 15.439 15.439C15.9533 14.9248 16.2422 14.2273 16.2422 13.5C16.2422 12.7727 15.9533 12.0752 15.439 11.561C14.9248 11.0467 14.2273 10.7578 13.5 10.7578ZM17.0648 10.6207C17.0648 10.4389 16.9926 10.2645 16.8641 10.1359C16.7355 10.0074 16.5611 9.93516 16.3793 9.93516C16.1975 9.93516 16.0231 10.0074 15.8945 10.1359C15.766 10.2645 15.6937 10.4389 15.6937 10.6207C15.6937 10.8025 15.766 10.9769 15.8945 11.1055C16.0231 11.234 16.1975 11.3062 16.3793 11.3062C16.5611 11.3062 16.7355 11.234 16.8641 11.1055C16.9926 10.9769 17.0648 10.8025 17.0648 10.6207ZM13.5 11.8547C13.9364 11.8547 14.3549 12.028 14.6634 12.3366C14.972 12.6451 15.1453 13.0636 15.1453 13.5C15.1453 13.9364 14.972 14.3549 14.6634 14.6634C14.3549 14.972 13.9364 15.1453 13.5 15.1453C13.0636 15.1453 12.6451 14.972 12.3366 14.6634C12.028 14.3549 11.8547 13.9364 11.8547 13.5C11.8547 13.0636 12.028 12.6451 12.3366 12.3366C12.6451 12.028 13.0636 11.8547 13.5 11.8547Z" fill="#110A1D"/>
</g>
<defs>
<clipPath id="clip0_100_411">
<rect width="27" height="27" fill="white"/>
</clipPath>
</defs>
</svg>
