<svg width="27" height="27" viewBox="0 0 27 27" fill="none" xmlns="http://www.w3.org/2000/svg">
<g clip-path="url(#clip0_100_423)">
<path fill-rule="evenodd" clip-rule="evenodd" d="M0 13.5C0 20.942 6.05516 27 13.5 27C20.942 27 27 20.942 27 13.5C27 6.05798 20.942 0 13.5 0C6.05799 0 0 6.05798 0 13.5ZM5.01349 4.1929C7.25443 2.14778 10.2341 0.89905 13.5 0.89905C16.765 0.89905 19.7438 2.14702 21.9845 4.19103L20.9825 5.19303C19.0012 3.40726 16.3776 2.32031 13.5 2.32031C10.6214 2.32031 7.99701 3.40801 6.01547 5.19488L5.01349 4.1929ZM4.19133 5.01521C2.14714 7.25594 0.89905 10.2349 0.89905 13.5C0.89905 16.7648 2.14693 19.7435 4.1908 21.9842L5.19278 20.9822C3.40716 19.0009 2.32031 16.3775 2.32031 13.5C2.32031 10.6222 3.40738 7.99854 5.19332 6.01719L4.19133 5.01521ZM5.0129 22.8065C7.25391 24.852 10.2338 26.1009 13.5 26.1009C16.7646 26.1009 19.7431 24.8532 21.9837 22.8096L20.9817 21.8077C19.0005 23.593 16.3773 24.6797 13.5 24.6797C10.6211 24.6797 7.99648 23.5918 6.01487 21.8046L5.0129 22.8065ZM26.101 13.5C26.101 16.7665 24.8518 19.7465 22.8061 21.9876L21.8042 20.9856C23.5916 19.0039 24.6797 16.3792 24.6797 13.5C24.6797 10.6212 23.5919 7.99673 21.8048 6.01515L22.8068 5.01317C24.8521 7.25414 26.101 10.2339 26.101 13.5Z" fill="#478BF9"/>
<path d="M8.33203 9.07234C8.33203 8.66343 8.67183 8.33203 9.09108 8.33203H17.9089C18.3282 8.33203 18.668 8.66343 18.668 9.07234V17.9277C18.668 18.3366 18.3282 18.668 17.9089 18.668H9.09108C8.67183 18.668 8.33203 18.3366 8.33203 17.9277V9.07234ZM11.5252 16.9845V12.3172H9.97415V16.9845H11.5252ZM10.75 11.6796C11.2907 11.6796 11.6273 11.3217 11.6273 10.8734C11.6176 10.4154 11.2913 10.0672 10.7603 10.0672C10.2293 10.0672 9.88242 10.416 9.88242 10.8734C9.88242 11.3217 10.219 11.6796 10.7397 11.6796H10.75ZM13.9205 16.9845V14.3779C13.9205 14.2384 13.9309 14.0988 13.9722 13.9994C14.084 13.7209 14.3391 13.4322 14.7681 13.4322C15.3295 13.4322 15.5536 13.8598 15.5536 14.4877V16.9845H17.1047V14.3075C17.1047 12.8734 16.3398 12.2067 15.3191 12.2067C14.4961 12.2067 14.1273 12.6589 13.9205 12.9774V12.9935H13.9102C13.9136 12.9881 13.9171 12.9828 13.9205 12.9774V12.3172H12.3702C12.3895 12.7552 12.3702 16.9845 12.3702 16.9845H13.9205Z" fill="#110A1D"/>
</g>
<defs>
<clipPath id="clip0_100_423">
<rect width="27" height="27" fill="white"/>
</clipPath>
</defs>
</svg>
