<svg width="27" height="27" viewBox="0 0 27 27" fill="none" xmlns="http://www.w3.org/2000/svg">
<g clip-path="url(#clip0_100_460)">
<path fill-rule="evenodd" clip-rule="evenodd" d="M0 13.5C0 20.942 6.05516 27 13.5 27C20.942 27 27 20.942 27 13.5C27 6.05798 20.942 0 13.5 0C6.05799 0 0 6.05798 0 13.5ZM5.01349 4.1929C7.25443 2.14778 10.2341 0.89905 13.5 0.89905C16.765 0.89905 19.7438 2.14702 21.9845 4.19103L20.9825 5.19303C19.0012 3.40726 16.3776 2.32031 13.5 2.32031C10.6214 2.32031 7.99701 3.40801 6.01547 5.19488L5.01349 4.1929ZM4.19133 5.01521C2.14714 7.25594 0.89905 10.2349 0.89905 13.5C0.89905 16.7648 2.14693 19.7435 4.1908 21.9842L5.19278 20.9822C3.40716 19.0009 2.32031 16.3775 2.32031 13.5C2.32031 10.6222 3.40738 7.99854 5.19332 6.01719L4.19133 5.01521ZM5.0129 22.8065C7.25391 24.852 10.2338 26.1009 13.5 26.1009C16.7646 26.1009 19.7431 24.8532 21.9837 22.8096L20.9817 21.8077C19.0005 23.593 16.3773 24.6797 13.5 24.6797C10.6211 24.6797 7.99648 23.5918 6.01487 21.8046L5.0129 22.8065ZM26.101 13.5C26.101 16.7665 24.8518 19.7465 22.8061 21.9876L21.8042 20.9856C23.5916 19.0039 24.6797 16.3792 24.6797 13.5C24.6797 10.6212 23.5919 7.99673 21.8048 6.01515L22.8068 5.01317C24.8521 7.25414 26.101 10.2339 26.101 13.5Z" fill="#478BF9"/>
<path d="M17.4181 9.3927C17.4181 9.3927 18.3742 9.01987 18.2942 9.92524C18.2679 10.2981 18.0289 11.6031 17.8429 13.0145L17.2055 17.1956C17.2055 17.1956 17.1523 17.8081 16.6742 17.9147C16.1963 18.021 15.4792 17.5418 15.3463 17.4353C15.24 17.3553 13.3544 16.1568 12.6904 15.5711C12.5044 15.4112 12.2918 15.0917 12.717 14.7189L15.5055 12.0557C15.8242 11.7362 16.1429 10.9906 14.815 11.896L11.0965 14.4258C11.0965 14.4258 10.6715 14.6923 9.87487 14.4526L8.14827 13.9198C8.14827 13.9198 7.51089 13.5204 8.59985 13.121C11.2559 11.8694 14.5228 10.5912 17.4176 9.3927H17.4181Z" fill="#110A1D"/>
</g>
<defs>
<clipPath id="clip0_100_460">
<rect width="27" height="27" fill="white"/>
</clipPath>
</defs>
</svg>
