<svg width="27" height="27" viewBox="0 0 27 27" fill="none" xmlns="http://www.w3.org/2000/svg">
<g clip-path="url(#clip0_100_447)">
<path fill-rule="evenodd" clip-rule="evenodd" d="M0 13.5C0 20.942 6.05516 27 13.5 27C20.942 27 27 20.942 27 13.5C27 6.05798 20.942 0 13.5 0C6.05799 0 0 6.05798 0 13.5ZM5.01349 4.1929C7.25443 2.14778 10.2341 0.89905 13.5 0.89905C16.765 0.89905 19.7438 2.14702 21.9845 4.19103L20.9825 5.19303C19.0012 3.40726 16.3776 2.32031 13.5 2.32031C10.6214 2.32031 7.99701 3.40801 6.01547 5.19488L5.01349 4.1929ZM4.19133 5.01521C2.14714 7.25594 0.89905 10.2349 0.89905 13.5C0.89905 16.7648 2.14693 19.7435 4.1908 21.9842L5.19278 20.9822C3.40716 19.0009 2.32031 16.3775 2.32031 13.5C2.32031 10.6222 3.40738 7.99854 5.19332 6.01719L4.19133 5.01521ZM5.0129 22.8065C7.25391 24.852 10.2338 26.1009 13.5 26.1009C16.7646 26.1009 19.7431 24.8532 21.9837 22.8096L20.9817 21.8077C19.0005 23.593 16.3773 24.6797 13.5 24.6797C10.6211 24.6797 7.99648 23.5918 6.01487 21.8046L5.0129 22.8065ZM26.101 13.5C26.101 16.7665 24.8518 19.7465 22.8061 21.9876L21.8042 20.9856C23.5916 19.0039 24.6797 16.3792 24.6797 13.5C24.6797 10.6212 23.5919 7.99673 21.8048 6.01515L22.8068 5.01317C24.8521 7.25414 26.101 10.2339 26.101 13.5Z" fill="#478BF9"/>
<path fill-rule="evenodd" clip-rule="evenodd" d="M14.3543 8.37402C14.6688 8.37402 14.9238 8.62901 14.9238 8.94355C14.9238 9.54775 15.1638 10.1272 15.5911 10.5544C16.0183 10.9817 16.5978 11.2217 17.202 11.2217C17.5165 11.2217 17.7715 11.4767 17.7715 11.7912C17.7715 12.1058 17.5165 12.3607 17.202 12.3607C16.3592 12.3607 15.5486 12.0495 14.9238 11.4906V15.7779C14.9238 16.3411 14.7568 16.8917 14.4439 17.36C14.131 17.8283 13.6863 18.1933 13.1659 18.4088C12.6456 18.6244 12.073 18.6807 11.5206 18.5709C10.9682 18.461 10.4608 18.1898 10.0626 17.7915C9.66432 17.3933 9.39311 16.8859 9.28323 16.3335C9.17336 15.7811 9.22975 15.2085 9.44528 14.6882C9.66081 14.1678 10.0258 13.7231 10.4941 13.4102C10.9624 13.0973 11.513 12.9303 12.0762 12.9303C12.3907 12.9303 12.6457 13.1853 12.6457 13.4998C12.6457 13.8143 12.3907 14.0693 12.0762 14.0693C11.7382 14.0693 11.4079 14.1695 11.1269 14.3573C10.846 14.545 10.627 14.8119 10.4976 15.1241C10.3683 15.4363 10.3345 15.7798 10.4004 16.1113C10.4663 16.4427 10.6291 16.7471 10.868 16.9861C11.107 17.225 11.4114 17.3878 11.7428 17.4537C12.0743 17.5196 12.4178 17.4858 12.73 17.3565C13.0422 17.2271 13.3091 17.0082 13.4968 16.7272C13.6846 16.4462 13.7848 16.1159 13.7848 15.7779V8.94355C13.7848 8.62901 14.0398 8.37402 14.3543 8.37402Z" fill="#110A1D"/>
</g>
<defs>
<clipPath id="clip0_100_447">
<rect width="27" height="27" fill="white"/>
</clipPath>
</defs>
</svg>
