<svg width="27" height="27" viewBox="0 0 27 27" fill="none" xmlns="http://www.w3.org/2000/svg">
<g clip-path="url(#clip0_100_472)">
<path fill-rule="evenodd" clip-rule="evenodd" d="M0 13.5C0 20.942 6.05516 27 13.5 27C20.942 27 27 20.942 27 13.5C27 6.05798 20.942 0 13.5 0C6.05799 0 0 6.05798 0 13.5ZM5.01349 4.1929C7.25443 2.14778 10.2341 0.89905 13.5 0.89905C16.765 0.89905 19.7438 2.14702 21.9845 4.19103L20.9825 5.19303C19.0012 3.40726 16.3776 2.32031 13.5 2.32031C10.6214 2.32031 7.99701 3.40801 6.01547 5.19488L5.01349 4.1929ZM4.19133 5.01521C2.14714 7.25594 0.89905 10.2349 0.89905 13.5C0.89905 16.7648 2.14693 19.7435 4.1908 21.9842L5.19278 20.9822C3.40716 19.0009 2.32031 16.3775 2.32031 13.5C2.32031 10.6222 3.40738 7.99854 5.19332 6.01719L4.19133 5.01521ZM5.0129 22.8065C7.25391 24.852 10.2338 26.1009 13.5 26.1009C16.7646 26.1009 19.7431 24.8532 21.9837 22.8096L20.9817 21.8077C19.0005 23.593 16.3773 24.6797 13.5 24.6797C10.6211 24.6797 7.99648 23.5918 6.01487 21.8046L5.0129 22.8065ZM26.101 13.5C26.101 16.7665 24.8518 19.7465 22.8061 21.9876L21.8042 20.9856C23.5916 19.0039 24.6797 16.3792 24.6797 13.5C24.6797 10.6212 23.5919 7.99673 21.8048 6.01515L22.8068 5.01317C24.8521 7.25414 26.101 10.2339 26.101 13.5Z" fill="#478BF9"/>
<path fill-rule="evenodd" clip-rule="evenodd" d="M7.85646 10.5809C7.90757 10.5065 7.98932 10.4624 8.07634 10.4624H9.94255C10.0472 10.4624 10.1425 10.5259 10.1876 10.6257C10.3011 10.8767 10.4115 11.1306 10.5206 11.3818C10.774 11.965 11.021 12.5335 11.2868 13.0171C11.4751 13.3598 11.663 13.6403 11.8547 13.8395C11.9358 13.9238 12.0145 13.9904 12.0913 14.0407V11.6607L11.5323 10.93C11.4665 10.844 11.4533 10.7257 11.4984 10.6258C11.5435 10.526 11.6389 10.4624 11.7436 10.4624H14.3378C14.4878 10.4624 14.6094 10.5909 14.6094 10.7495V13.4387C14.9197 13.1152 15.1625 12.7465 15.3843 12.3513C15.5119 12.1237 15.6302 11.8919 15.7515 11.6542C15.7808 11.5967 15.8103 11.5389 15.8402 11.4807C15.9919 11.1849 16.151 10.883 16.3331 10.5914C16.3834 10.5109 16.4686 10.4624 16.5598 10.4624H18.3473C18.4316 10.4624 18.5111 10.5038 18.5625 10.5743C18.6139 10.6449 18.6314 10.7367 18.6099 10.8229C18.2677 12.1921 17.6016 13.1486 16.9664 14.0605C16.9414 14.0966 16.9163 14.1325 16.8913 14.1684C17.7536 14.984 18.4447 15.9829 18.9185 17.1009C18.9561 17.1897 18.9486 17.2927 18.8985 17.3744C18.8485 17.4561 18.7626 17.5054 18.6705 17.5054H16.7038C16.6387 17.5054 16.5757 17.4806 16.5264 17.4357C16.3186 17.2462 16.1398 17.0388 15.975 16.8406C15.9412 16.8 15.9083 16.7601 15.8758 16.7207C15.7462 16.5637 15.6245 16.4161 15.4935 16.2772C15.2424 16.011 14.9724 15.7937 14.6094 15.672V17.2183C14.6094 17.3629 14.5077 17.4849 14.372 17.5031C12.1663 17.7989 10.6829 16.6528 9.68369 15.1852C8.72334 13.7747 8.18803 12.0384 7.84904 10.9389C7.83854 10.9049 7.82823 10.8714 7.8181 10.8386C7.7911 10.7512 7.80536 10.6554 7.85646 10.5809ZM8.45095 11.0366C8.79198 12.1314 9.29225 13.6272 10.1247 14.8498C11.01 16.1501 12.2487 17.1126 14.0661 16.9594V15.3118C14.0661 15.2281 14.1007 15.1486 14.1608 15.094C14.2208 15.0395 14.3004 15.0154 14.3787 15.028C15.0604 15.1378 15.5091 15.4805 15.8782 15.8717C16.0234 16.0256 16.1601 16.1914 16.2907 16.3499C16.3219 16.3876 16.3526 16.4249 16.3831 16.4616C16.5222 16.6288 16.6587 16.787 16.8072 16.9312H18.2384C17.772 15.9756 17.1305 15.1258 16.3497 14.4319C16.2406 14.335 16.221 14.1653 16.3047 14.0434C16.3793 13.935 16.4537 13.8278 16.5278 13.7214C17.1027 12.8943 17.6509 12.1058 17.9837 11.0366H16.708C16.5708 11.2673 16.4445 11.5073 16.3177 11.7544C16.2893 11.8099 16.2607 11.8659 16.2319 11.9223C16.1102 12.1609 15.9854 12.4056 15.8516 12.6441C15.5184 13.2381 15.1149 13.8217 14.4954 14.2881C14.4125 14.3505 14.3037 14.3587 14.2133 14.3094C14.1229 14.2602 14.0661 14.1617 14.0661 14.0542V11.0366H12.3125L12.5742 11.3787C12.6132 11.4298 12.6346 11.4935 12.6346 11.5592V14.4447C12.6346 14.5266 12.6015 14.6047 12.5436 14.6591C12.4857 14.7136 12.4085 14.7394 12.3316 14.7299C11.9994 14.6891 11.7155 14.5001 11.4738 14.2489C11.2324 13.998 11.0161 13.6677 10.817 13.3055C10.5375 12.797 10.2724 12.1871 10.014 11.5923C9.93229 11.4043 9.85127 11.2179 9.77066 11.0366H8.45095Z" fill="#110A1D"/>
<path d="M10.1247 14.8498C9.29225 13.6272 8.79198 12.1314 8.45095 11.0366H9.77066C9.85127 11.2179 9.93229 11.4043 10.014 11.5923C10.2724 12.1871 10.5375 12.797 10.817 13.3055C11.0161 13.6677 11.2324 13.998 11.4738 14.2489C11.7155 14.5001 11.9994 14.6891 12.3316 14.7299C12.4085 14.7394 12.4857 14.7136 12.5436 14.6591C12.6015 14.6047 12.6346 14.5266 12.6346 14.4447V11.5592C12.6346 11.4935 12.6132 11.4298 12.5742 11.3787L12.3125 11.0366H14.0661V14.0542C14.0661 14.1617 14.1229 14.2602 14.2133 14.3094C14.3037 14.3587 14.4125 14.3505 14.4954 14.2881C15.1149 13.8217 15.5184 13.2381 15.8516 12.6441C15.9854 12.4056 16.1102 12.1609 16.2319 11.9223C16.2607 11.8659 16.2893 11.8099 16.3177 11.7544C16.4445 11.5073 16.5708 11.2673 16.708 11.0366H17.9837C17.6509 12.1058 17.1027 12.8943 16.5278 13.7214C16.4537 13.8278 16.3793 13.935 16.3047 14.0434C16.221 14.1653 16.2406 14.335 16.3497 14.4319C17.1305 15.1258 17.772 15.9756 18.2384 16.9312H16.8072C16.6587 16.787 16.5222 16.6288 16.3831 16.4616C16.3526 16.4249 16.3219 16.3876 16.2907 16.3499C16.1601 16.1914 16.0234 16.0256 15.8782 15.8717C15.5091 15.4805 15.0604 15.1378 14.3787 15.028C14.3004 15.0154 14.2208 15.0395 14.1608 15.094C14.1007 15.1486 14.0661 15.2281 14.0661 15.3118V16.9594C12.2487 17.1126 11.01 16.1501 10.1247 14.8498Z" fill="#110A1D"/>
</g>
<defs>
<clipPath id="clip0_100_472">
<rect width="27" height="27" fill="white"/>
</clipPath>
</defs>
</svg>
