<svg width="27" height="27" viewBox="0 0 27 27" fill="none" xmlns="http://www.w3.org/2000/svg">
<g clip-path="url(#clip0_100_435)">
<path fill-rule="evenodd" clip-rule="evenodd" d="M0 13.5C0 20.942 6.05516 27 13.5 27C20.942 27 27 20.942 27 13.5C27 6.05798 20.942 0 13.5 0C6.05799 0 0 6.05798 0 13.5ZM5.01349 4.1929C7.25443 2.14778 10.2341 0.89905 13.5 0.89905C16.765 0.89905 19.7438 2.14702 21.9845 4.19103L20.9825 5.19303C19.0012 3.40726 16.3776 2.32031 13.5 2.32031C10.6214 2.32031 7.99701 3.40801 6.01547 5.19488L5.01349 4.1929ZM4.19133 5.01521C2.14714 7.25594 0.89905 10.2349 0.89905 13.5C0.89905 16.7648 2.14693 19.7435 4.1908 21.9842L5.19278 20.9822C3.40716 19.0009 2.32031 16.3775 2.32031 13.5C2.32031 10.6222 3.40738 7.99854 5.19332 6.01719L4.19133 5.01521ZM5.0129 22.8065C7.25391 24.852 10.2338 26.1009 13.5 26.1009C16.7646 26.1009 19.7431 24.8532 21.9837 22.8096L20.9817 21.8077C19.0005 23.593 16.3773 24.6797 13.5 24.6797C10.6211 24.6797 7.99648 23.5918 6.01487 21.8046L5.0129 22.8065ZM26.101 13.5C26.101 16.7665 24.8518 19.7465 22.8061 21.9876L21.8042 20.9856C23.5916 19.0039 24.6797 16.3792 24.6797 13.5C24.6797 10.6212 23.5919 7.99673 21.8048 6.01515L22.8068 5.01317C24.8521 7.25414 26.101 10.2339 26.101 13.5Z" fill="#478BF9"/>
<path d="M12.375 15.1875L15.2944 13.5L12.375 11.8125V15.1875ZM18.8775 10.7831C18.9506 11.0475 19.0013 11.4019 19.035 11.8519C19.0744 12.3019 19.0913 12.69 19.0913 13.0275L19.125 13.5C19.125 14.7319 19.035 15.6375 18.8775 16.2169C18.7369 16.7231 18.4106 17.0494 17.9044 17.19C17.64 17.2631 17.1562 17.3138 16.4137 17.3475C15.6825 17.3869 15.0131 17.4038 14.3944 17.4038L13.5 17.4375C11.1431 17.4375 9.675 17.3475 9.09563 17.19C8.58938 17.0494 8.26313 16.7231 8.1225 16.2169C8.04938 15.9525 7.99875 15.5981 7.965 15.1481C7.92563 14.6981 7.90875 14.31 7.90875 13.9725L7.875 13.5C7.875 12.2681 7.965 11.3625 8.1225 10.7831C8.26313 10.2769 8.58938 9.95063 9.09563 9.81C9.36 9.73688 9.84375 9.68625 10.5863 9.6525C11.3175 9.61312 11.9869 9.59625 12.6056 9.59625L13.5 9.5625C15.8569 9.5625 17.325 9.6525 17.9044 9.81C18.4106 9.95063 18.7369 10.2769 18.8775 10.7831Z" fill="#110A1D"/>
</g>
<defs>
<clipPath id="clip0_100_435">
<rect width="27" height="27" fill="white"/>
</clipPath>
</defs>
</svg>
